<svg viewBox="0 0 412.6045 122.3187" width="5000px" height="1482.2754600811347px" xmlns="http://www.w3.org/2000/svg" xmlns:xlink="http://www.w3.org/1999/xlink" preserveAspectRatio="none"><defs></defs><style>.companyNamehZIjEQhJm7 {fill:#FFFFFF;fill-opacity:1;}.icon1hZIjEQhJm7 {fill:#FFFFFF;fill-opacity:1;}.icon2hZIjEQhJm7 {fill:#D9D9D9;fill-opacity:1;}.icon3hZIjEQhJm7 {fill:#B4B4B4;fill-opacity:1;}</style><g opacity="1" transform="rotate(0 170.1344 19.315600000000018)">
        <svg width="242.4701" height="77.6874" x="170.1344" y="19.315600000000018" version="1.1" preserveAspectRatio="none" viewBox="1.76 -24.24 97.24 31.16">
          <g transform="matrix(1 0 0 1 0 0)" class="companyNamehZIjEQhJm7"><path d="M21.36-2.92L21.36-2.92L21.36-2.60Q21.36-1.32 20.56-0.86Q19.76-0.40 18.64-0.40L18.64-0.40Q18.12-0.40 17.84-0.46Q17.56-0.52 17.36-0.80Q17.16-1.08 16.98-1.68Q16.80-2.28 16.52-3.36L16.52-3.36Q16.24-4.52 15.92-5.28Q15.60-6.04 15.14-6.50Q14.68-6.96 13.98-7.16Q13.28-7.36 12.16-7.36L12.16-7.36Q10.04-7.36 8.88-7.20Q7.72-7.04 7.12-6.62Q6.52-6.20 6.24-5.46Q5.96-4.72 5.60-3.56L5.60-3.56Q5.32-2.72 5.20-1.88L5.20-1.88Q5.12-1.08 4.90-0.74Q4.68-0.40 3.76-0.40L3.76-0.40Q2.84-0.40 2.30-1.16Q1.76-1.92 1.76-2.84L1.76-2.84Q1.76-3.80 2.40-4.68L2.40-4.68Q2.72-5.12 2.94-5.54Q3.16-5.96 3.32-6.32L3.32-6.32Q3.48-6.68 4.08-8.50Q4.68-10.32 5.84-13.60L5.84-13.60Q6.96-16.88 7.70-18.90Q8.44-20.92 8.84-21.76L8.84-21.76Q9.60-23.36 10.16-23.80Q10.72-24.24 11.56-24.24L11.56-24.24Q12.40-24.24 13.10-23.64Q13.80-23.04 14.60-21.32L14.60-21.32Q14.60-21.32 19.96-6.20L19.96-6.20Q20.24-5.40 20.80-4.48L20.80-4.48Q21.36-3.56 21.36-2.92ZM9.64-9.80L11.80-9.80Q14.44-9.80 14.44-10.28L14.44-10.28L14.44-10.40Q14.44-10.48 14.38-10.72Q14.32-10.96 14.24-11.40L14.24-11.40L13.96-12.40Q13.96-12.44 13.88-12.68L13.88-12.68Q13.84-12.76 13.40-14.76L13.40-14.76Q12.92-16.68 12.20-18.40L12.20-18.40Q11.48-20.08 11.36-20.08L11.36-20.08Q11.24-20.08 10.76-18.84L10.76-18.84Q7.88-11.64 7.88-10.32L7.88-10.32L7.88-10.20Q7.88-9.80 9.64-9.80L9.64-9.80Z M33.32-13.56L33.32-13.56Q31.72-13.56 30.82-11.96Q29.92-10.36 29.92-7.04L29.92-7.04Q29.92-6.32 29.96-5.84Q30-5.36 30.06-4.98Q30.12-4.60 30.22-4.26Q30.32-3.92 30.44-3.44L30.44-3.44Q30.52-3 30.60-2.60Q30.68-2.20 30.68-1.88L30.68-1.88Q30.68-1.20 29.88-0.66Q29.08-0.12 27.80-0.12L27.80-0.12L27.52-0.16L27.20-0.16Q26.40-0.16 25.84-0.62Q25.28-1.08 25.28-1.64L25.28-1.64L25.28-1.92Q25.28-2.08 25.64-3.08L25.64-3.08Q25.96-4.12 26-5.04Q26.04-5.96 26.04-7.56L26.04-7.56L26.04-10.40L26-11.32L26-12.56Q26-13.40 25.68-14.28L25.68-14.28Q25.36-14.96 25.36-15.32L25.36-15.32Q25.36-16.36 27.16-16.36L27.16-16.36Q29-16.36 29.76-15.36L29.76-15.36Q30.04-15.08 30.28-15.08L30.28-15.08Q30.52-15.08 31.16-15.52L31.16-15.52Q32.92-16.68 34.04-16.68L34.04-16.68L34.32-16.68Q35.36-16.68 35.90-16.22Q36.44-15.76 36.44-15L36.44-15Q36.44-13.44 34.76-13.44L34.76-13.44Q34.04-13.56 33.32-13.56Z M46.08-0.04L46.08-0.04L45.44-0.04Q42.92-0.04 41.96-1.96Q41-3.88 41-7.88L41-7.88Q41-11.80 40.56-13.32L40.56-13.32Q40.36-13.92 39.68-14.60L39.68-14.60Q39-15.28 39-15.80L39-15.80L39-16.04Q39-16.44 39.80-17L39.80-17Q40.20-17.28 40.42-17.42Q40.64-17.56 40.76-17.78Q40.88-18 40.98-18.36Q41.08-18.72 41.24-19.44L41.24-19.44Q41.64-20.88 42.06-21.46Q42.48-22.04 43.20-22.04L43.20-22.04Q43.92-22.04 44.20-21.62Q44.48-21.20 44.80-19.92L44.80-19.92Q44.96-19.28 45.10-18.86Q45.24-18.44 45.48-18.16Q45.72-17.88 46.12-17.66Q46.52-17.44 47.24-17.20L47.24-17.20Q48.64-16.72 48.64-16L48.64-16Q48.64-15.36 47.16-14.80L47.16-14.80Q45.76-14.32 45.32-13.52L45.32-13.52Q44.60-12.08 44.60-8.36L44.60-8.36Q44.60-4.60 45.24-3.84L45.24-3.84Q45.88-3 47.32-2.80L47.32-2.80Q48.76-2.64 48.76-1.72L48.76-1.72Q48.76-1.04 47.94-0.54Q47.12-0.04 46.08-0.04Z M55.28-7.20L55.28-7.20Q52.12-14.20 52.12-14.92L52.12-14.92Q52.12-15.76 52.72-16.10Q53.32-16.44 54.56-16.44L54.56-16.44Q55.20-16.44 55.56-16.28Q55.92-16.12 56.12-15.76Q56.32-15.40 56.46-14.76Q56.60-14.12 56.80-13.16L56.80-13.16Q57-12.20 57.40-10.78Q57.80-9.36 58.26-8.02Q58.72-6.68 59.18-5.74Q59.64-4.80 59.92-4.80L59.92-4.80Q60.08-4.80 60.40-5.24L60.40-5.24Q60.84-5.80 61.34-6.94Q61.84-8.08 62.28-9.42Q62.72-10.76 63.04-12.20Q63.36-13.64 63.44-14.80L63.44-14.80Q63.52-15.84 63.82-16.36Q64.12-16.88 65.28-16.88L65.28-16.88L65.72-16.88Q67.28-16.88 67.28-15.68L67.28-15.68Q67.28-14.92 66.68-13.40L66.68-13.40Q66.04-11.84 65.76-10.84L65.76-10.84Q62.96-1.36 61.60 1.32L61.60 1.32Q60.32 4 58.76 5.46Q57.20 6.92 55.56 6.92L55.56 6.92Q53.96 6.92 53.96 5.88L53.96 5.88Q53.96 5.20 55.44 4.60L55.44 4.60Q56.96 4 57.86 2.96Q58.76 1.92 58.76 0.12L58.76 0.12Q58.76-0.80 57.40-3.20L57.40-3.20Q56.72-4.40 56.18-5.40Q55.64-6.40 55.28-7.20Z M70.72-12.72L70.72-12.72Q70.72-13.76 71.18-14.62Q71.64-15.48 72.48-16.10Q73.32-16.72 74.48-17.06Q75.64-17.40 77-17.40L77-17.40Q77.56-17.40 78.46-17.34Q79.36-17.28 80.20-17.06Q81.04-16.84 81.64-16.34Q82.24-15.84 82.24-15L82.24-15Q82.24-13.56 81.32-13.56L81.32-13.56Q81-13.56 79.56-14.28L79.56-14.28Q78.12-14.96 76.84-14.96L76.84-14.96Q75.52-14.96 74.86-14.36Q74.20-13.76 74.20-12.80L74.20-12.80Q74.20-12.32 74.40-12Q74.60-11.68 75.06-11.38Q75.52-11.08 76.30-10.76Q77.08-10.44 78.28-9.96L78.28-9.96Q80.64-9 81.86-7.92Q83.08-6.84 83.08-4.72L83.08-4.72Q83.08-3.64 82.62-2.74Q82.16-1.84 81.32-1.16Q80.48-0.48 79.32-0.10Q78.16 0.28 76.76 0.28L76.76 0.28Q72.08 0.28 70.92-1.56L70.92-1.56Q70.56-2.16 70.56-2.60L70.56-2.60Q70.56-4.08 71.48-4.08L71.48-4.08Q71.76-4.08 73.52-3.20L73.52-3.20Q75.20-2.24 76.60-2.24L76.60-2.24Q78-2.24 78.78-2.82Q79.56-3.40 79.56-4.44L79.56-4.44Q79.56-4.96 79.36-5.34Q79.16-5.72 78.68-6.06Q78.20-6.40 77.42-6.74Q76.64-7.08 75.48-7.56L75.48-7.56Q74.56-7.92 73.70-8.36Q72.84-8.80 72.18-9.38Q71.52-9.96 71.12-10.76Q70.72-11.56 70.72-12.72Z M86.64-12.72L86.64-12.72Q86.64-13.76 87.10-14.62Q87.56-15.48 88.40-16.10Q89.24-16.72 90.40-17.06Q91.56-17.40 92.92-17.40L92.92-17.40Q93.48-17.40 94.38-17.34Q95.28-17.28 96.12-17.06Q96.96-16.84 97.56-16.34Q98.16-15.84 98.16-15L98.16-15Q98.16-13.56 97.24-13.56L97.24-13.56Q96.92-13.56 95.48-14.28L95.48-14.28Q94.04-14.96 92.76-14.96L92.76-14.96Q91.44-14.96 90.78-14.36Q90.12-13.76 90.12-12.80L90.12-12.80Q90.12-12.32 90.32-12Q90.52-11.68 90.98-11.38Q91.44-11.08 92.22-10.76Q93-10.44 94.20-9.96L94.20-9.96Q96.56-9 97.78-7.92Q99-6.84 99-4.72L99-4.72Q99-3.64 98.54-2.74Q98.08-1.84 97.24-1.16Q96.40-0.48 95.24-0.10Q94.08 0.28 92.68 0.28L92.68 0.28Q88 0.28 86.84-1.56L86.84-1.56Q86.48-2.16 86.48-2.60L86.48-2.60Q86.48-4.08 87.40-4.08L87.40-4.08Q87.68-4.08 89.44-3.20L89.44-3.20Q91.12-2.24 92.52-2.24L92.52-2.24Q93.92-2.24 94.70-2.82Q95.48-3.40 95.48-4.44L95.48-4.44Q95.48-4.96 95.28-5.34Q95.08-5.72 94.60-6.06Q94.12-6.40 93.34-6.74Q92.56-7.08 91.40-7.56L91.40-7.56Q90.48-7.92 89.62-8.36Q88.76-8.80 88.10-9.38Q87.44-9.96 87.04-10.76Q86.64-11.56 86.64-12.72Z"></path></g>
        </svg>
      </g><g opacity="1" transform="rotate(0 0 0)">
        <svg width="136.8601" height="122.3187" x="0" y="0" version="1.1" preserveAspectRatio="none" viewBox="19.999998092651367 28.5 160 143">
          <g transform="matrix(1 0 0 1 0 0)"><g><path d="M159.9 37.8c0 5.1-4.1 9.3-9.2 9.3s-9.3-4.1-9.3-9.3c0-5.1 4.1-9.3 9.3-9.3 5 0 9.1 4.1 9.2 9.3z" data-color="1" class="icon1hZIjEQhJm7"></path><path d="M172.8 56c0 4.8-3.9 8.8-8.7 8.8-4.8 0-8.8-3.9-8.8-8.8 0-4.8 3.9-8.8 8.8-8.8 4.7 0 8.7 4 8.7 8.8z" data-color="1" class="icon1hZIjEQhJm7"></path><path d="M179.5 76.6c0 4.6-3.7 8.3-8.2 8.3-4.6 0-8.2-3.7-8.3-8.3 0-4.6 3.7-8.3 8.3-8.3 4.5.1 8.2 3.8 8.2 8.3z" data-color="1" class="icon1hZIjEQhJm7"></path><path d="M180 98.2c0 4.3-3.5 7.8-7.7 7.8-4.3 0-7.7-3.5-7.7-7.7 0-4.3 3.5-7.8 7.7-7.7 4.2-.1 7.7 3.3 7.7 7.6z" data-color="1" class="icon1hZIjEQhJm7"></path><path d="M174.3 119.3c0 4-3.2 7.3-7.2 7.3s-7.2-3.2-7.2-7.2 3.2-7.2 7.2-7.2c4-.1 7.2 3.1 7.2 7.1z" data-color="1" class="icon1hZIjEQhJm7"></path><path d="M162.5 138.5c0 3.7-3 6.7-6.7 6.8s-6.7-3-6.7-6.7 3-6.7 6.7-6.7c3.7-.1 6.7 2.9 6.7 6.6z" data-color="1" class="icon1hZIjEQhJm7"></path><path d="M145 153.9c0 3.4-2.8 6.2-6.2 6.2-3.4 0-6.2-2.8-6.2-6.2 0-3.4 2.8-6.2 6.2-6.2 3.5-.1 6.2 2.7 6.2 6.2z" data-color="1" class="icon1hZIjEQhJm7"></path><path d="M124.6 163.2c0 3.2-2.6 5.7-5.7 5.7-3.2 0-5.7-2.6-5.7-5.7 0-3.2 2.6-5.7 5.7-5.7 3.1-.1 5.7 2.5 5.7 5.7z" data-color="1" class="icon1hZIjEQhJm7"></path><path d="M102.7 166.3c0 2.9-2.3 5.2-5.2 5.2-2.9 0-5.2-2.3-5.2-5.2 0-2.9 2.3-5.2 5.2-5.2 2.9-.1 5.2 2.3 5.2 5.2z" data-color="1" class="icon1hZIjEQhJm7"></path><path d="M80.8 163.2c0 2.6-2.1 4.7-4.7 4.7s-4.7-2.1-4.7-4.7 2.1-4.7 4.7-4.7c2.6-.1 4.7 2.1 4.7 4.7z" data-color="1" class="icon1hZIjEQhJm7"></path><path d="M60.4 153.9c0 2.3-1.9 4.2-4.2 4.2-2.3 0-4.2-1.9-4.2-4.2 0-2.3 1.9-4.2 4.2-4.2 2.3-.1 4.2 1.8 4.2 4.2z" data-color="1" class="icon1hZIjEQhJm7"></path><path d="M42.9 138.5c0 2.1-1.7 3.7-3.7 3.7s-3.7-1.7-3.7-3.7c0-2.1 1.7-3.7 3.7-3.7 2.1 0 3.7 1.7 3.7 3.7z" data-color="1" class="icon1hZIjEQhJm7"></path><path d="M31.1 119.3c0 1.8-1.4 3.2-3.2 3.2-1.8 0-3.2-1.4-3.2-3.2 0-1.8 1.4-3.2 3.2-3.2 1.7 0 3.2 1.4 3.2 3.2z" data-color="1" class="icon1hZIjEQhJm7"></path><path d="M25.4 98.2c0 1.5-1.2 2.7-2.7 2.7-1.5 0-2.7-1.2-2.7-2.7 0-1.5 1.2-2.7 2.7-2.7 1.5 0 2.7 1.2 2.7 2.7z" data-color="1" class="icon1hZIjEQhJm7"></path><path d="M25.9 76.6c0 1.2-1 2.2-2.2 2.2-1.2 0-2.2-1-2.2-2.2 0-1.2 1-2.2 2.2-2.2 1.2 0 2.2 1 2.2 2.2z" data-color="1" class="icon1hZIjEQhJm7"></path><path d="M32.6 56c0 .9-.8 1.7-1.7 1.7-.9 0-1.7-.8-1.7-1.7 0-.9.8-1.7 1.7-1.7 1 0 1.7.8 1.7 1.7z" data-color="1" class="icon1hZIjEQhJm7"></path><path d="M45.6 37.8c0 .7-.5 1.2-1.2 1.2s-1.2-.5-1.2-1.2.5-1.2 1.2-1.2c.6 0 1.2.5 1.2 1.2z" data-color="1" class="icon1hZIjEQhJm7"></path><path d="M70.3 124c0 3.1-2.5 5.7-5.7 5.7-3.1 0-5.7-2.5-5.7-5.7 0-3.1 2.5-5.7 5.7-5.7s5.7 2.5 5.7 5.7z" data-color="2" class="icon2hZIjEQhJm7"></path><path d="M61.8 112.8c0 3-2.4 5.4-5.4 5.4-3 0-5.4-2.4-5.4-5.4 0-3 2.4-5.4 5.4-5.4 3 0 5.4 2.5 5.4 5.4z" data-color="2" class="icon2hZIjEQhJm7"></path><path d="M57.1 100.2c0 2.8-2.3 5.1-5.1 5.1s-5.1-2.3-5.1-5.1 2.3-5.1 5.1-5.1 5.1 2.3 5.1 5.1z" data-color="2" class="icon2hZIjEQhJm7"></path><path d="M56.1 87c0 2.6-2.1 4.8-4.7 4.8s-4.7-2.1-4.7-4.8 2.1-4.8 4.7-4.8 4.7 2.1 4.7 4.8z" data-color="2" class="icon2hZIjEQhJm7"></path><path d="M59 74c0 2.5-2 4.4-4.4 4.4-2.4 0-4.4-2-4.4-4.4s2-4.4 4.4-4.4c2.4 0 4.4 2 4.4 4.4z" data-color="2" class="icon2hZIjEQhJm7"></path><path d="M65.6 62.3c0 2.3-1.8 4.1-4.1 4.1s-4.1-1.8-4.1-4.1 1.9-4.1 4.1-4.1c2.3-.1 4.1 1.8 4.1 4.1z" data-color="2" class="icon2hZIjEQhJm7"></path><path d="M75.7 52.9c0 2.1-1.7 3.8-3.8 3.8-2.1 0-3.8-1.7-3.8-3.8 0-2.1 1.7-3.8 3.8-3.8 2.1-.1 3.8 1.6 3.8 3.8z" data-color="2" class="icon2hZIjEQhJm7"></path><path d="M87.6 47.2c0 1.9-1.6 3.5-3.5 3.5s-3.5-1.6-3.5-3.5 1.6-3.5 3.5-3.5c1.9-.1 3.5 1.5 3.5 3.5z" data-color="2" class="icon2hZIjEQhJm7"></path><path d="M100.4 45.3c0 1.8-1.4 3.2-3.2 3.2S94 47 94 45.3c0-1.8 1.4-3.2 3.2-3.2s3.2 1.4 3.2 3.2z" data-color="2" class="icon2hZIjEQhJm7"></path><path d="M113.2 47.2c0 1.6-1.3 2.9-2.9 2.9s-2.9-1.3-2.9-2.9c0-1.6 1.3-2.9 2.9-2.9s2.9 1.3 2.9 2.9z" data-color="2" class="icon2hZIjEQhJm7"></path><path d="M125.1 52.9c0 1.4-1.2 2.6-2.6 2.6-1.4 0-2.6-1.2-2.6-2.6s1.2-2.6 2.6-2.6c1.4 0 2.6 1.1 2.6 2.6z" data-color="2" class="icon2hZIjEQhJm7"></path><path d="M135.2 62.3c0 1.3-1 2.3-2.3 2.3-1.3 0-2.3-1-2.3-2.3 0-1.3 1-2.3 2.3-2.3 1.2 0 2.3 1 2.3 2.3z" data-color="2" class="icon2hZIjEQhJm7"></path><path d="M141.8 74c0 1.1-.9 2-2 2s-2-.9-2-2 .9-2 2-2c1.1.1 2 .9 2 2z" data-color="2" class="icon2hZIjEQhJm7"></path><path d="M144.7 87c0 .9-.7 1.7-1.7 1.7-.9 0-1.7-.7-1.7-1.7 0-.9.7-1.7 1.7-1.7.9 0 1.6.7 1.7 1.7z" data-color="2" class="icon2hZIjEQhJm7"></path><path d="M143.7 100.2c0 .7-.6 1.4-1.3 1.4-.7 0-1.3-.6-1.3-1.4 0-.7.6-1.4 1.3-1.4.7 0 1.3.6 1.3 1.4z" data-color="2" class="icon2hZIjEQhJm7"></path><path d="M139 112.8c0 .6-.5 1-1 1-.6 0-1-.5-1-1 0-.6.5-1 1-1s1 .4 1 1z" data-color="2" class="icon2hZIjEQhJm7"></path><path d="M130.5 124c0 .4-.3.7-.7.7-.4 0-.7-.3-.7-.7s.3-.7.7-.7c.3-.1.7.3.7.7z" data-color="2" class="icon2hZIjEQhJm7"></path></g></g>
        </svg>
      </g></svg>