<?xml version="1.0" encoding="iso-8859-1"?>
<!-- Generator: Adobe Illustrator 19.0.0, SVG Export Plug-In . SVG Version: 6.00 Build 0)  -->
<svg version="1.1" id="Capa_1" xmlns="http://www.w3.org/2000/svg" xmlns:xlink="http://www.w3.org/1999/xlink" x="0px" y="0px"
	 viewBox="0 0 512 512" style="enable-background:new 0 0 512 512;" xml:space="preserve">
<g>
	<g>
		<path d="M455.622,199.882V55.236c0-9.165-7.457-16.621-16.621-16.621h-22.778c-9.165,0-16.621,7.456-16.621,16.621v12.807
			c-26.334-9.904-64.078-16.892-105.964-19.471c-7.793-0.485-15.545,2.204-21.704,7.439c-4.047,3.44-9.855,5.414-15.934,5.414
			c-6.078,0-11.885-1.973-15.933-5.414c-6.159-5.236-13.91-7.921-21.704-7.439c-41.886,2.579-79.63,9.567-105.964,19.471V55.236
			c0-9.165-7.456-16.621-16.621-16.621H73c-9.165,0-16.621,7.456-16.621,16.621v144.645C24.68,203.607,0,230.62,0,263.305v134.794
			c0,4.142,3.358,7.5,7.5,7.5h15.75v60.285c0,4.142,3.358,7.5,7.5,7.5h41.021c4.142,0,7.5-3.358,7.5-7.5v-60.285h353.458v60.285
			c0,4.142,3.358,7.5,7.5,7.5h41.021c4.142,0,7.5-3.358,7.5-7.5v-60.285h15.75c4.142,0,7.5-3.358,7.5-7.5V263.305
			C512,230.62,487.321,203.608,455.622,199.882z M416.223,53.616h22.778c0.894,0,1.621,0.727,1.621,1.621v144.19H423.23
			c0.498-1.127,0.931-2.288,1.295-3.477c6.023-19.662,3.631-36.032,0.563-46.303c-1.835-6.144-5.495-11.49-10.486-15.417V55.236h0
			C414.602,54.342,415.33,53.616,416.223,53.616z M403.36,144.692c3.577,2.06,6.188,5.344,7.355,9.249
			c2.476,8.288,4.393,21.541-0.532,37.616c-1.146,3.741-3.596,6.943-6.901,9.019c-1.725,1.083-3.591,1.818-5.547,2.183
			c-13.816,2.58-32.047,4-51.333,4s-37.517-1.42-51.333-4c-1.956-0.366-3.822-1.101-5.547-2.184c-0.01-0.006-0.021-0.01-0.031-0.016
			c-0.086-0.053-0.166-0.116-0.254-0.166c-3.16-2.079-5.503-5.204-6.616-8.836c-4.925-16.076-3.007-29.329-0.532-37.616
			c1.713-5.736,6.486-10.006,12.455-11.143c13.879-2.644,32.297-4.1,51.858-4.1c19.563,0,37.979,1.456,51.858,4.1
			C400.054,143.14,401.77,143.777,403.36,144.692z M112.399,84.179c24.833-10.488,63.37-17.956,106.886-20.636
			c3.906-0.246,7.851,1.163,11.067,3.896c6.816,5.794,15.925,8.985,25.647,8.985c9.724,0,18.832-3.191,25.648-8.985
			c3.216-2.733,7.16-4.14,11.067-3.896C336.23,66.223,374.767,73.69,399.6,84.178v43.611c-14.582-2.642-33.394-4.092-53.199-4.092
			c-20.475,0-39.889,1.55-54.665,4.364c-11.493,2.189-20.697,10.46-24.021,21.585c-3.068,10.271-5.461,26.641,0.563,46.303
			c0.364,1.189,0.797,2.349,1.295,3.477h-27.147c0.498-1.127,0.931-2.288,1.295-3.477c6.023-19.663,3.63-36.033,0.563-46.303
			c-3.323-11.125-12.527-19.396-24.021-21.585c-14.776-2.814-34.189-4.364-54.665-4.364c-19.806,0-38.617,1.45-53.199,4.092V84.179z
			 M101.287,153.94c1.167-3.904,3.778-7.189,7.354-9.249c1.59-0.916,3.306-1.553,5.1-1.894c13.879-2.644,32.296-4.1,51.858-4.1
			s37.979,1.456,51.859,4.1c5.968,1.137,10.741,5.406,12.454,11.143c2.476,8.287,4.393,21.54-0.532,37.616
			c-1.146,3.74-3.596,6.943-6.9,9.019c-1.726,1.083-3.592,1.818-5.548,2.184c-13.816,2.58-32.047,4-51.333,4s-37.517-1.42-51.333-4
			c-1.956-0.366-3.823-1.101-5.547-2.184h-0.001c-3.303-2.075-5.754-5.278-6.899-9.019C96.894,175.48,98.811,162.228,101.287,153.94
			z M71.379,55.236c0-0.894,0.728-1.621,1.621-1.621h22.778c0.894,0,1.621,0.727,1.621,1.621v78.994
			c-4.992,3.927-8.651,9.272-10.486,15.417c-3.068,10.271-5.461,26.641,0.563,46.303c0.364,1.188,0.797,2.35,1.295,3.477H71.379
			V55.236z M64.272,458.383h-0.001h-26.02v-52.784h26.021V458.383z M473.75,458.383h-26.021v-52.784h26.021V458.383z M497,390.599
			H15v-54.377h482V390.599z M497,321.222H15v-50.417h70.377c4.142,0,7.5-3.358,7.5-7.5c0-4.142-3.358-7.5-7.5-7.5H15.575
			c3.619-23.405,23.902-41.379,48.304-41.379h38.846c2.769,1.471,5.715,2.503,8.788,3.077c14.697,2.744,33.905,4.255,54.086,4.255
			c20.181,0,39.389-1.511,54.086-4.255c3.072-0.574,6.019-1.606,8.788-3.077h55.056c2.769,1.471,5.715,2.503,8.788,3.077
			c14.697,2.744,33.905,4.255,54.086,4.255c20.181,0,39.389-1.511,54.087-4.255c3.072-0.574,6.019-1.606,8.787-3.077h38.846
			c24.401,0,44.685,17.975,48.304,41.379h-381.05c-4.143,0-7.5,3.358-7.5,7.5c0,4.142,3.357,7.5,7.5,7.5H497V321.222z"/>
	</g>
</g>
<g>
</g>
<g>
</g>
<g>
</g>
<g>
</g>
<g>
</g>
<g>
</g>
<g>
</g>
<g>
</g>
<g>
</g>
<g>
</g>
<g>
</g>
<g>
</g>
<g>
</g>
<g>
</g>
<g>
</g>
</svg>
